<?xml version="1.0" encoding="UTF-8"?>
<svg version="1.1" xmlns="http://www.w3.org/2000/svg" width="512" height="512">
<path d="M0 0 C0.83983938 -0.00453111 1.67967877 -0.00906223 2.54496783 -0.01373065 C5.35764586 -0.02638551 8.17013052 -0.02475357 10.98283386 -0.02310181 C13.0001246 -0.02908639 15.01741305 -0.03589178 17.03469849 -0.04345703 C22.51411589 -0.06113173 27.99347083 -0.06581305 33.47291398 -0.0670886 C38.04790681 -0.06898787 42.62288511 -0.07634576 47.19787234 -0.08343279 C57.9927368 -0.09972008 68.7875679 -0.10460145 79.58244324 -0.10317993 C90.71543107 -0.10197852 101.84822503 -0.12307964 112.9811638 -0.15466726 C122.54140472 -0.18082537 132.10158231 -0.19154741 141.66185874 -0.19026911 C147.37085164 -0.18975933 153.07967229 -0.19545176 158.78862953 -0.21662521 C164.15916525 -0.23599953 169.52936424 -0.2361374 174.89991188 -0.22159195 C176.86871838 -0.21950174 178.83754592 -0.22421736 180.80631638 -0.23631287 C183.49895751 -0.25178141 186.19043992 -0.24244675 188.88305664 -0.22705078 C189.65787866 -0.23733791 190.43270068 -0.24762503 191.23100215 -0.25822389 C197.78234905 -0.17572854 202.93508606 1.90409868 207.87419128 6.23226929 C208.41301941 6.88324585 208.95184753 7.53422241 209.50700378 8.20492554 C210.06130066 8.85332397 210.61559753 9.50172241 211.18669128 10.16976929 C214.82165039 15.44537209 214.91483355 20.13716111 214.87251282 26.3346405 C214.87422167 27.2495448 214.87593052 28.1644491 214.87769115 29.10707778 C214.88098594 32.17338335 214.86998243 35.2394702 214.85905457 38.30575562 C214.85849045 40.50350947 214.85880702 42.7012637 214.85993958 44.89901733 C214.86051407 50.86757211 214.84874399 56.83604671 214.83479166 62.80458283 C214.82230052 69.04127234 214.82111508 75.27796362 214.81874084 81.5146637 C214.81322824 91.98329023 214.8007305 102.45188929 214.78288269 112.92050171 C214.76451989 123.70240125 214.75036534 134.4842928 214.74186707 145.26620483 C214.74134162 145.93099123 214.74081617 146.59577763 214.7402748 147.28070907 C214.73766469 150.61580373 214.7351418 153.95089846 214.732651 157.28599322 C214.71173831 184.94649116 214.67655313 212.60695628 214.63200378 240.26742554 C213.60347794 240.27073568 212.57495209 240.27404583 211.51525879 240.27745628 C186.48514502 240.35846227 161.45509245 240.45078148 136.42506409 240.55495262 C124.32071699 240.60506734 112.21637662 240.65151045 100.11198425 240.68930054 C89.56139798 240.72224894 79.01086413 240.76209601 68.46033573 240.81021559 C62.87430106 240.83545216 57.28830105 240.85724191 51.70222473 240.8707695 C46.44260672 240.88361554 41.18310773 240.90569755 35.92355537 240.93480873 C33.99508515 240.9438646 32.06659577 240.94957009 30.13810539 240.95163918 C27.50019495 240.95497578 24.86261908 240.97049094 22.22477722 240.98895264 C21.46599935 240.9870179 20.70722147 240.98508317 19.92545033 240.9830898 C11.68393953 241.06901037 3.99403648 242.75999425 -2.36799622 248.26742554 C-7.4550559 254.05657336 -8.21599198 260.29389714 -7.90705872 267.82211304 C-6.90753595 274.21036723 -4.32534433 278.95297918 0.78825378 282.95492554 C7.80933284 287.18680881 15.00948896 287.4152445 23.06655884 287.42564392 C24.30059601 287.43305089 24.30059601 287.43305089 25.55956322 287.44060749 C28.30172573 287.45590109 31.04386497 287.46432092 33.78605652 287.4727478 C35.75750938 287.48233273 37.72896022 287.49234317 39.70040894 287.50274658 C45.04278623 287.52973508 50.38517231 287.55077737 55.72757983 287.57074857 C61.31431339 287.59264553 66.90102008 287.62001605 72.48773193 287.64680481 C83.06269193 287.69668156 93.63766688 287.74163898 104.21265608 287.78482717 C116.25371954 287.83424246 128.29475602 287.88914466 140.33579338 287.94450676 C165.10117167 288.05824977 189.86657585 288.1651055 214.63200378 288.26742554 C214.7404233 290.18283692 214.81778457 292.10002327 214.88200378 294.01742554 C214.92841003 295.08476929 214.97481628 296.15211304 215.02262878 297.25180054 C214.63200378 300.26742554 214.63200378 300.26742554 213.12822819 302.62630463 C209.64200965 304.91828853 206.4781826 304.82161725 202.44241333 304.77536011 C201.19323627 304.78472005 201.19323627 304.78472005 199.9188233 304.79426908 C197.12363005 304.8102446 194.32930337 304.79757683 191.53410339 304.78500366 C189.53167715 304.79042305 187.52925489 304.79754467 185.52684021 304.8062439 C180.0821982 304.82451018 174.63785875 304.81739384 169.19321132 304.80472755 C163.49283321 304.79460724 157.79248117 304.80399146 152.09210205 304.81027222 C142.51103567 304.81755557 132.93009248 304.80794717 123.3490448 304.78890991 C112.28712227 304.76718336 101.22549513 304.77415915 90.16357988 304.79621553 C80.66104486 304.81440183 71.15859851 304.81691075 61.6560517 304.80646086 C55.98329781 304.80023809 50.31068242 304.79935594 44.63793755 304.81260681 C39.2969224 304.82421005 33.95628523 304.81605788 28.61531067 304.79302979 C26.66067696 304.78776468 24.70601116 304.78921855 22.75139046 304.79808044 C8.21722472 304.85787016 -3.35121198 303.78439347 -14.36799622 293.26742554 C-24.8021407 282.33740091 -26.52635734 269.69723325 -26.50170898 255.17869568 C-26.50397454 254.1899907 -26.5062401 253.20128572 -26.50857431 252.18261999 C-26.5148823 248.88413494 -26.51408701 245.58569132 -26.51325989 242.28720093 C-26.51625332 239.9164169 -26.51965628 237.54563336 -26.5234375 235.17485046 C-26.53226165 228.74517028 -26.53461491 222.31550342 -26.53525329 215.88581777 C-26.53574813 211.8674803 -26.53803633 207.84914515 -26.5407505 203.83080864 C-26.54954974 190.53198122 -26.55417087 177.23316184 -26.55342003 163.93433148 C-26.55338007 163.21836629 -26.55334012 162.5024011 -26.55329895 161.76473999 C-26.55325807 161.04789602 -26.55321719 160.33105205 -26.55317507 159.59248554 C-26.55276852 147.97224574 -26.56234223 136.35203833 -26.57643732 124.7318079 C-26.59081231 112.78614778 -26.59770692 100.84050344 -26.59684354 88.89483446 C-26.59651202 82.19383664 -26.59943502 75.49287791 -26.61002159 68.79188728 C-26.61970531 62.4906341 -26.61977981 56.18945267 -26.61250496 49.88819695 C-26.61145956 47.57794973 -26.61381937 45.26769804 -26.61986542 42.9574585 C-26.62759427 39.79926784 -26.62293451 36.64132446 -26.61523438 33.48313904 C-26.62037794 32.57320208 -26.6255215 31.66326512 -26.63082093 30.72575432 C-26.58120497 21.49080329 -25.55293465 13.4153287 -18.72737122 6.63851929 C-12.80089222 1.29180454 -7.9939174 -0.03168054 0 0 Z M56.75700378 75.07992554 C54.55191401 79.36760009 54.47809943 83.15002953 54.47087097 87.85653687 C54.46590607 88.62762283 54.46094116 89.3987088 54.45582581 90.19316101 C54.44121571 92.74526867 54.43440385 95.29731416 54.42887878 97.84945679 C54.42312606 99.6244151 54.41736834 101.39937339 54.41160583 103.17433167 C54.4010989 106.89750457 54.39525433 110.62065591 54.39176941 114.34384155 C54.38628757 119.10867282 54.36226494 123.87321791 54.33379745 128.63795948 C54.3151493 132.30545375 54.3099643 135.97287942 54.30843353 139.6404171 C54.30541102 141.39664969 54.29739604 143.15288118 54.28424835 144.90906715 C54.26714334 147.36964134 54.26907886 149.82952067 54.27555847 152.29013062 C54.26634369 153.01190491 54.25712891 153.7336792 54.24763489 154.47732544 C54.28588774 159.12774536 55.16603436 162.32254591 57.63200378 166.26742554 C60.58605744 167.74445237 62.31764591 167.63652448 65.63200378 167.26742554 C68.80686742 165.83904574 71.69416652 164.00241991 74.63200378 162.14242554 C75.94153015 161.3347876 75.94153015 161.3347876 77.2775116 160.51083374 C80.07287979 158.77926673 82.85398566 157.02667569 85.63200378 155.26742554 C86.52081238 154.70619995 87.40962097 154.14497437 88.32536316 153.56674194 C92.84392921 150.70912132 97.35076215 147.83387758 101.85075378 144.94711304 C105.97349259 142.30964664 110.12209734 139.71856512 114.28825378 137.15023804 C115.38814636 136.4706604 116.48803894 135.79108276 117.6212616 135.09091187 C119.75806241 133.77309004 121.8979376 132.46023731 124.04118347 131.15292358 C125.00443542 130.55777954 125.96768738 129.9626355 126.96012878 129.34945679 C128.24258484 128.56405518 128.24258484 128.56405518 129.5509491 127.76278687 C131.88309637 126.27213328 131.88309637 126.27213328 133.63200378 123.26742554 C134.21542731 119.80973363 134.21542731 119.80973363 133.63200378 116.26742554 C129.08451932 111.85425496 123.18808508 108.7711291 117.81950378 105.45492554 C115.65795938 104.11261621 113.49650361 102.77016415 111.33512878 101.42758179 C110.22717957 100.74067261 109.11923035 100.05376343 107.97770691 99.34603882 C103.68674575 96.68015708 99.40765421 93.99559773 95.1290741 91.30990601 C91.18548338 88.83839615 87.23290398 86.38145148 83.28044128 83.92416382 C80.85573946 82.40738408 78.4453741 80.87048146 76.03825378 79.32601929 C74.715643 78.49350189 73.39275193 77.6614295 72.06950378 76.82992554 C70.97508972 76.1299646 69.88067566 75.43000366 68.75309753 74.70883179 C64.58675739 72.78470224 60.29608652 71.65881222 56.75700378 75.07992554 Z " fill="#000000" transform="translate(161.3679962158203,143.73257446289063)"/>
<path d="M0 0 C1.18492287 -0.00744736 1.18492287 -0.00744736 2.39378357 -0.01504517 C4.98608301 -0.02954767 7.57832108 -0.03645201 10.1706543 -0.04199219 C11.0663381 -0.04481956 11.9620219 -0.04764694 12.88484764 -0.05056 C17.63352116 -0.06551118 22.38216467 -0.0747639 27.13085938 -0.07910156 C31.98058242 -0.08455216 36.83001988 -0.10851925 41.67965412 -0.13707352 C45.45575191 -0.15591898 49.23178424 -0.16091717 53.00792503 -0.16243744 C54.79248792 -0.16542003 56.57705093 -0.17329487 58.36156654 -0.18662262 C74.29727367 -0.29705736 89.91459282 1.27689284 105.24487305 5.84863281 C106.11072021 6.10281982 106.97656738 6.35700684 107.86865234 6.61889648 C151.1066592 19.81262933 186.65941167 50.75069657 207.84350586 90.33056641 C220.04743173 113.9614095 225.90989253 139.14592747 225.74487305 165.66113281 C225.73984838 167.06998539 225.73528718 168.4788397 225.73120117 169.88769531 C225.71947335 173.31221919 225.70305996 176.73665328 225.68237305 180.16113281 C224.95356934 180.02400879 224.22476562 179.88688477 223.47387695 179.74560547 C213.59556048 177.91300632 203.9735355 177.08208278 193.93237305 177.03613281 C193.23547363 177.03145996 192.53857422 177.02678711 191.82055664 177.02197266 C187.03147232 177.03672926 182.42473719 177.49124729 177.68237305 178.16113281 C177.61244141 177.27031006 177.54250977 176.3794873 177.47045898 175.46166992 C177.19808384 172.07778094 176.91315992 168.69539309 176.62036133 165.31323242 C176.49734969 163.86409148 176.37899843 162.41454551 176.26586914 160.96459961 C174.15758562 134.08864901 164.49631064 106.62331439 144.8815918 87.41894531 C142.68237305 85.16113281 142.68237305 85.16113281 142.68237305 83.16113281 C142.10229492 82.90460938 141.5222168 82.64808594 140.92456055 82.38378906 C138.47515276 81.04813639 136.81483579 79.53188973 134.80737305 77.59863281 C107.42412454 52.90001652 72.58033494 48.97306936 37.25146484 48.97583008 C34.14951635 48.97365361 31.04793047 48.95545686 27.94604492 48.93652344 C2.09156238 48.75600087 2.09156238 48.75600087 -23.13012695 53.78613281 C-23.9828418 54.04483154 -24.83555664 54.30353027 -25.71411133 54.57006836 C-43.21416941 60.10317496 -58.11096926 68.7930563 -71.3918457 81.50878906 C-73.31762695 83.16113281 -73.31762695 83.16113281 -75.31762695 83.16113281 C-75.57415039 83.74121094 -75.83067383 84.32128906 -76.0949707 84.91894531 C-77.43062338 87.3683531 -78.94687003 89.02867007 -80.88012695 91.03613281 C-99.69257353 111.89341053 -107.47899315 138.8738549 -109.44262695 166.34863281 C-109.52899414 167.49138672 -109.61536133 168.63414062 -109.7043457 169.81152344 C-109.91393362 172.59438528 -110.1182711 175.37752253 -110.31762695 178.16113281 C-111.47391602 178 -112.63020508 177.83886719 -113.8215332 177.67285156 C-117.96718289 177.15840129 -122.07914668 176.96916121 -126.25512695 176.97363281 C-127.3395105 176.97375366 -127.3395105 176.97375366 -128.44580078 176.97387695 C-138.50292151 177.07697682 -148.41369327 178.49198939 -158.31762695 180.16113281 C-158.77848124 162.03537904 -158.72910562 144.87229533 -154.31762695 127.16113281 C-154.13570801 126.40735352 -153.95378906 125.65357422 -153.76635742 124.87695312 C-143.54502536 83.57144503 -115.49637332 46.73812877 -79.50512695 24.47363281 C-55.66050989 10.10821791 -28.1134458 0.04323707 0 0 Z " fill="#000000" transform="translate(222.317626953125,15.8388671875)"/>
<path d="M0 0 C2.1682435 0.00864728 4.33395919 -0.02059234 6.50195312 -0.05200195 C7.89257735 -0.05361119 9.28320619 -0.05304175 10.67382812 -0.05004883 C12.5387793 -0.05282837 12.5387793 -0.05282837 14.44140625 -0.05566406 C18.32705742 0.55332108 19.25796673 1.37663534 21.64257812 4.44604492 C22.14594269 7.30090332 22.14594269 7.30090332 22.1505127 10.6706543 C22.16179199 11.94932373 22.17307129 13.22799316 22.18469238 14.54541016 C22.17691536 15.96020734 22.16872269 17.37500229 22.16015625 18.78979492 C22.16557704 20.28141971 22.17269946 21.77303915 22.18139648 23.26464844 C22.19963816 27.3142712 22.19255902 31.36348653 22.17988014 35.41311646 C22.16975677 39.65001528 22.17914397 43.88687911 22.1854248 48.1237793 C22.19270316 55.23907742 22.18310864 62.3542095 22.1640625 69.46948242 C22.14229332 77.69707292 22.14934456 85.92426695 22.17136812 94.15184784 C22.18951683 101.21438746 22.19208306 108.27680769 22.18161345 115.3393631 C22.17537557 119.55817667 22.17455086 123.77680385 22.1877594 127.99560547 C22.19930968 131.96184865 22.19130774 135.92758041 22.16818237 139.89376831 C22.16289081 141.3498347 22.16441678 142.80594409 22.17323303 144.26199341 C22.18415247 146.24845855 22.16803513 148.23501768 22.1505127 150.22143555 C22.14900459 151.33345337 22.14749649 152.44547119 22.14594269 153.59118652 C21.52529315 157.11123276 20.44555555 158.29284104 17.64257812 160.44604492 C14.91978455 160.95397949 14.91978455 160.95397949 11.76342773 160.96362305 C10.5779686 160.97623169 9.39250946 160.98884033 8.17112732 161.00183105 C6.25240562 160.98968567 6.25240562 160.98968567 4.29492188 160.97729492 C2.9593528 160.97999282 1.62378565 160.98387771 0.28822327 160.9888916 C-2.51368881 160.9947871 -5.31509069 160.98623262 -8.11694336 160.9675293 C-11.6787123 160.94489308 -15.23926523 160.95776241 -18.8009882 160.98181915 C-21.56288986 160.99640937 -24.32451291 160.99160891 -27.08642387 160.98130798 C-29.02873914 160.97739826 -30.97106592 160.98939883 -32.91334534 161.00183105 C-45.02742194 160.87533913 -54.50293252 157.89881832 -63.35742188 149.44604492 C-74.10544858 138.18722091 -75.50884309 125.19245646 -75.52539062 110.28979492 C-75.52871902 109.22925903 -75.53204742 108.16872314 -75.53547668 107.0760498 C-75.54052117 104.8370812 -75.54288578 102.59810514 -75.54272461 100.35913086 C-75.54489723 96.98432538 -75.56304152 93.60985461 -75.58203125 90.23510742 C-75.65055292 64.3192056 -73.30088892 40.53938053 -54.16601562 21.16479492 C-38.78844522 6.27913567 -21.33900651 -0.13005604 0 0 Z " fill="#000000" transform="translate(90.357421875,207.553955078125)"/>
<path d="M0 0 C0.66903854 -0.0038269 1.33807709 -0.00765381 2.02738953 -0.01159668 C3.44706726 -0.01431548 4.8667951 -0.00695615 6.28637695 0.00976562 C8.40502722 0.03081103 10.52014006 0.01016539 12.63867188 -0.015625 C31.6943202 -0.05699491 49.18042362 6.0195293 63.06005859 19.33129883 C77.84578918 34.09933709 85.46191112 51.09173938 85.57920837 72.12879944 C85.57715673 73.55591998 85.57416854 74.98303944 85.5703125 76.41015625 C85.574888 77.91365287 85.58019757 79.41714742 85.5861969 80.92063904 C85.59506595 84.05126517 85.59277506 87.18163532 85.58276367 90.31225586 C85.57125814 94.29520486 85.59154073 98.27726927 85.62068081 102.26010227 C85.63914781 105.35822519 85.63873005 108.4561399 85.63304329 111.55430412 C85.63289148 113.02171002 85.63881768 114.48913132 85.65133476 115.95648384 C85.748688 129.23058676 83.5191019 139.70297141 74.13671875 149.53125 C64.0722288 159.13912793 53.43056367 161.14936702 39.859375 161.0625 C38.51704122 161.06520201 37.17470936 161.06909028 35.8323822 161.07409668 C33.04292852 161.07994444 30.25399245 161.07157462 27.46459961 161.05273438 C23.89450387 161.02979005 20.32560103 161.0431929 16.75554752 161.06702423 C13.99394222 161.08147925 11.23262022 161.07688055 8.47100639 161.06651306 C6.51671946 161.06256534 4.56242132 161.07466584 2.60816956 161.08703613 C0.82998085 161.06812317 0.82998085 161.06812317 -0.98413086 161.04882812 C-2.02572861 161.04564575 -3.06732635 161.04246338 -4.14048767 161.03918457 C-7.6564006 160.38329433 -8.66080651 159.32022534 -10.86328125 156.53125 C-11.36664581 153.6763916 -11.36664581 153.6763916 -11.37121582 150.30664062 C-11.38249512 149.02797119 -11.39377441 147.74930176 -11.40539551 146.43188477 C-11.39761848 145.01708758 -11.38942582 143.60229263 -11.38085938 142.1875 C-11.38628017 140.69587521 -11.39340259 139.20425577 -11.40209961 137.71264648 C-11.42034129 133.66302372 -11.41326215 129.61380839 -11.40058327 125.56417847 C-11.39045989 121.32727964 -11.3998471 117.09041582 -11.40612793 112.85351562 C-11.41340628 105.7382175 -11.40381177 98.62308542 -11.38476562 91.5078125 C-11.36299644 83.280222 -11.37004768 75.05302797 -11.39207125 66.82544708 C-11.41021995 59.76290746 -11.41278619 52.70048723 -11.40231657 45.63793182 C-11.39607869 41.41911825 -11.39525399 37.20049107 -11.40846252 32.98168945 C-11.42001281 29.01544627 -11.41201087 25.04971451 -11.3888855 21.08352661 C-11.38359393 19.62746022 -11.38511991 18.17135083 -11.39393616 16.71530151 C-11.40485559 14.72883638 -11.38873825 12.74227724 -11.37121582 10.75585938 C-11.36970772 9.64384155 -11.36819962 8.53182373 -11.36664581 7.3861084 C-10.20837322 0.81690491 -5.99435606 0.02209174 0 0 Z " fill="#000000" transform="translate(410.86328125,207.46875)"/>
<path d="M0 0 C5.28 0 10.56 0 16 0 C16.09066559 10.37109687 16.16392542 20.74192697 16.20724869 31.11333179 C16.22805031 35.93011612 16.25623095 40.7466133 16.30175781 45.56323242 C16.34548214 50.21871925 16.36919284 54.87393132 16.37950897 59.52960777 C16.38685292 61.29848233 16.40119299 63.06734326 16.42292023 64.83609962 C16.5902832 79.03603813 15.25617203 90.25640594 5 101 C-5.52136007 111.04402048 -16.77895402 112.60001283 -30.80932617 112.51757812 C-32.37430977 112.52300923 -33.93928825 112.5301374 -35.5042572 112.53881836 C-39.72314614 112.55693283 -43.94164043 112.55003501 -48.16053557 112.53730202 C-52.59037638 112.52711772 -57.02018522 112.53658218 -61.45002747 112.54284668 C-68.8833315 112.55010508 -76.31647608 112.54058063 -83.74975586 112.52148438 C-92.33015828 112.49969502 -100.91018076 112.50678917 -109.49057406 112.52879 C-116.87687998 112.54696696 -124.26307184 112.54949184 -131.6493929 112.53903532 C-136.05266853 112.53281608 -140.45576577 112.53192185 -144.85902977 112.54518127 C-148.99691171 112.55677359 -153.13430535 112.54865287 -157.27213478 112.52560425 C-158.78619198 112.52033616 -160.3002906 112.52179827 -161.81433105 112.53065491 C-170.98891414 112.57935791 -178.03322415 112.35241856 -185.2421875 106.03515625 C-185.78101563 105.38417969 -186.31984375 104.73320312 -186.875 104.0625 C-187.42929688 103.41410156 -187.98359375 102.76570313 -188.5546875 102.09765625 C-191.89894724 97.24396036 -192.26746376 92.9585431 -192.125 87.1875 C-192.08375 84.815625 -192.0425 82.44375 -192 80 C-186.39 80 -180.78 80 -175 80 C-174.8046875 82.76692708 -174.609375 85.53385417 -174.4140625 88.30078125 C-174.16134528 91.21528433 -174.16134528 91.21528433 -172 94 C-168.77661011 95.24592165 -165.53609064 95.12823085 -162.11274719 95.13371277 C-160.30655159 95.14011024 -160.30655159 95.14011024 -158.46386719 95.14663696 C-157.14588135 95.14618378 -155.82789551 95.14573059 -154.4699707 95.14526367 C-153.06528128 95.14825653 -151.66059267 95.15165935 -150.25590515 95.15544128 C-146.44160538 95.16427504 -142.62732805 95.16661921 -138.81301904 95.16725707 C-136.42758657 95.16796821 -134.0421598 95.1701038 -131.65672874 95.17275429 C-123.3275453 95.18200738 -114.99837786 95.18608944 -106.66918945 95.18530273 C-98.91781987 95.18470274 -91.16652005 95.19523921 -83.41516811 95.2110464 C-76.75172897 95.22414839 -70.08831256 95.22948548 -63.42486066 95.22884732 C-59.44905628 95.22859301 -55.47331385 95.23140693 -51.49752235 95.24202538 C-47.753844 95.25175056 -44.01028622 95.25175543 -40.26660347 95.24450874 C-38.24898821 95.24297466 -36.23137285 95.25127971 -34.21377563 95.25994873 C-24.40763024 95.22618517 -14.64250071 94.8765856 -7 88 C-1.53089325 80.76666526 -0.90414306 73.49391455 -0.79467773 64.59594727 C-0.78477814 63.892668 -0.77487854 63.18938873 -0.76467896 62.46479797 C-0.73336589 60.16536703 -0.70842748 57.8659155 -0.68359375 55.56640625 C-0.66299806 53.96214799 -0.64200094 52.35789484 -0.62062073 50.75364685 C-0.5656699 46.55010132 -0.51614267 42.34650903 -0.46777344 38.1428833 C-0.41736018 33.8458647 -0.36177804 29.54891324 -0.30664062 25.25195312 C-0.19938961 16.83469087 -0.09835077 8.41737096 0 0 Z " fill="#000000" transform="translate(440,384)"/>
<path d="M0 0 C0.83646238 -0.0034177 1.67292476 -0.0068354 2.53473449 -0.01035666 C5.34184231 -0.0169533 8.14799714 0.00506971 10.95501709 0.0269165 C12.96543353 0.0280446 14.97585161 0.02741187 16.98626709 0.02514648 C22.44880976 0.02399692 27.91100244 0.04754558 33.37346363 0.07544231 C39.08029731 0.10041556 44.78713866 0.10279475 50.49401855 0.10754395 C61.30291611 0.1199857 72.11165219 0.15282362 82.92047858 0.1929419 C95.22503031 0.23762223 107.52958966 0.25963726 119.83420229 0.27972364 C145.14767849 0.32155514 170.46099991 0.39273453 195.77435303 0.48101807 C195.77435303 5.76101807 195.77435303 11.04101807 195.77435303 16.48101807 C169.24516881 16.57354197 142.71602333 16.64495958 116.18671036 16.68826675 C103.86918909 16.70890787 91.55176979 16.73705814 79.23431396 16.78277588 C68.50068525 16.82259612 57.76713038 16.8484396 47.03342986 16.85737205 C41.34794079 16.86259493 35.66266299 16.8749029 29.97724152 16.90393829 C24.62897483 16.93103128 19.28100701 16.93947542 13.93267822 16.93344879 C11.96702197 16.93455177 10.00135601 16.94254189 8.03575897 16.95783997 C5.35680231 16.97767221 2.67898164 16.97298218 0 16.96203613 C-1.17315313 16.97951318 -1.17315313 16.97951318 -2.37000632 16.9973433 C-5.91888363 16.95801008 -7.85132018 16.76846069 -10.70654678 14.57595444 C-12.3524167 12.3061945 -12.76893628 11.25153357 -12.72564697 8.48101807 C-12.74111572 7.49101807 -12.74111572 7.49101807 -12.75689697 6.48101807 C-11.03021156 -0.01944466 -5.75572501 -0.08574591 0 0 Z " fill="#000000" transform="translate(180.22564697265625,399.51898193359375)"/>
</svg>
